<svg width="32" height="32" viewBox="0 0 32 32" fill="none" xmlns="http://www.w3.org/2000/svg">
<path fill-rule="evenodd" clip-rule="evenodd" d="M16 2.66669C8.63616 2.66669 2.66663 8.63622 2.66663 16C2.66663 23.3638 8.63616 29.3334 16 29.3334C23.3638 29.3334 29.3333 23.3638 29.3333 16C29.3333 8.63622 23.3638 2.66669 16 2.66669ZM16 9.33335C16.7363 9.33335 17.3333 9.93031 17.3333 10.6667V16C17.3333 16.7364 16.7363 17.3334 16 17.3334C15.2636 17.3334 14.6666 16.7364 14.6666 16V10.6667C14.6666 9.93031 15.2636 9.33335 16 9.33335ZM14.6666 21.3334C14.6666 20.597 15.2636 20 16 20H16.0133C16.7497 20 17.3466 20.597 17.3466 21.3334C17.3466 22.0697 16.7497 22.6667 16.0133 22.6667H16C15.2636 22.6667 14.6666 22.0697 14.6666 21.3334Z" fill="white"/>
</svg>
