<svg width="32" height="32" viewBox="0 0 32 32" fill="none" xmlns="http://www.w3.org/2000/svg">
<path fill-rule="evenodd" clip-rule="evenodd" d="M2.66663 10.6666C2.66663 7.72113 5.05444 5.33331 7.99996 5.33331H24C26.9455 5.33331 29.3333 7.72113 29.3333 10.6666V11.3333C29.3333 11.7015 29.0348 12 28.6666 12L3.33329 12C2.9651 12 2.66663 11.7015 2.66663 11.3333V10.6666ZM3.33329 14.6666C2.9651 14.6666 2.66663 14.9651 2.66663 15.3333V21.3333C2.66663 24.2788 5.05444 26.6666 7.99996 26.6666H24C26.9455 26.6666 29.3333 24.2788 29.3333 21.3333V15.3333C29.3333 14.9651 29.0348 14.6666 28.6666 14.6666L3.33329 14.6666ZM17.3333 20C17.3333 19.2636 17.9302 18.6666 18.6666 18.6666H22.6666C23.403 18.6666 24 19.2636 24 20C24 20.7364 23.403 21.3333 22.6666 21.3333H18.6666C17.9302 21.3333 17.3333 20.7364 17.3333 20Z" fill="white"/>
</svg>
