<svg width="32" height="32" viewBox="0 0 32 32" fill="none" xmlns="http://www.w3.org/2000/svg">
<path fill-rule="evenodd" clip-rule="evenodd" d="M16 2.66666C8.63616 2.66666 2.66663 8.63619 2.66663 16C2.66663 23.3638 8.63616 29.3333 16 29.3333C23.3638 29.3333 29.3333 23.3638 29.3333 16C29.3333 8.63619 23.3638 2.66666 16 2.66666ZM20.9428 11.0572C21.4635 11.5779 21.4635 12.4221 20.9428 12.9428L12.9428 20.9428C12.4221 21.4635 11.5778 21.4635 11.0572 20.9428C10.5365 20.4221 10.5365 19.5779 11.0572 19.0572L19.0572 11.0572C19.5778 10.5365 20.4221 10.5365 20.9428 11.0572ZM21.3333 19.3333C21.3333 20.4379 20.4379 21.3333 19.3333 21.3333C18.2287 21.3333 17.3333 20.4379 17.3333 19.3333C17.3333 18.2288 18.2287 17.3333 19.3333 17.3333C20.4379 17.3333 21.3333 18.2288 21.3333 19.3333ZM12.6666 14.6667C13.7712 14.6667 14.6666 13.7712 14.6666 12.6667C14.6666 11.5621 13.7712 10.6667 12.6666 10.6667C11.5621 10.6667 10.6666 11.5621 10.6666 12.6667C10.6666 13.7712 11.5621 14.6667 12.6666 14.6667Z" fill="white"/>
</svg>
